<?xml version="1.0" encoding="UTF-8" standalone="no"?>
<!DOCTYPE svg PUBLIC "-//W3C//DTD SVG 1.1//EN"
 "http://www.w3.org/Graphics/SVG/1.1/DTD/svg11.dtd">
<!-- Generated by graphviz version 2.40.1 (20161225.0304)
 -->
<!-- Title: payments Pages: 1 -->
<svg width="490pt" height="360pt"
 viewBox="0.00 0.00 490.37 360.00" xmlns="http://www.w3.org/2000/svg" xmlns:xlink="http://www.w3.org/1999/xlink">
<g id="graph0" class="graph" transform="scale(.6721 .6721) rotate(0) translate(4 531.6)">
<title>payments</title>
<polygon fill="#ffffff" stroke="transparent" points="-4,4 -4,-531.6 725.5625,-531.6 725.5625,4 -4,4"/>
<!-- qi -->
<g id="node1" class="node">
<title>qi</title>
<ellipse fill="#000000" stroke="#000000" cx="432.7788" cy="-525.8" rx="1.8" ry="1.8"/>
</g>
<!-- Create Booking -->
<g id="node3" class="node">
<title>Create Booking</title>
<polygon fill="none" stroke="#000000" points="485.0379,-487 380.5197,-487 380.5197,-451 485.0379,-451 485.0379,-487"/>
<text text-anchor="middle" x="432.7788" y="-464.8" font-family="Times,serif" font-size="14.00" fill="#000000">Create Booking</text>
</g>
<!-- qi&#45;&gt;Create Booking -->
<g id="edge1" class="edge">
<title>qi&#45;&gt;Create Booking</title>
<path fill="none" stroke="#000000" d="M432.7788,-523.9102C432.7788,-519.5478 432.7788,-508.2893 432.7788,-497.0942"/>
<polygon fill="#000000" stroke="#000000" points="436.2789,-497.0304 432.7788,-487.0304 429.2789,-497.0304 436.2789,-497.0304"/>
</g>
<!-- payment_policy -->
<g id="node2" class="node">
<title>payment_policy</title>
<polygon fill="none" stroke="#000000" points="432.7788,-341 338.0361,-323 432.7788,-305 527.5216,-323 432.7788,-341"/>
<text text-anchor="middle" x="432.7788" y="-318.8" font-family="Times,serif" font-size="14.00" fill="#000000">payment_policy</text>
</g>
<!-- Connect Flow -->
<g id="node5" class="node">
<title>Connect Flow</title>
<polygon fill="none" stroke="#000000" points="423.2202,-255 328.3374,-255 328.3374,-219 423.2202,-219 423.2202,-255"/>
<text text-anchor="middle" x="375.7788" y="-232.8" font-family="Times,serif" font-size="14.00" fill="#000000">Connect Flow</text>
</g>
<!-- payment_policy&#45;&gt;Connect Flow -->
<g id="edge4" class="edge">
<title>payment_policy&#45;&gt;Connect Flow</title>
<path fill="none" stroke="#000000" d="M413.7882,-308.3707C406.9394,-302.3436 399.6091,-294.9177 394.3442,-287 389.8524,-280.2448 386.2606,-272.2573 383.479,-264.6721"/>
<polygon fill="#000000" stroke="#000000" points="386.7616,-263.4518 380.2813,-255.0699 380.1202,-265.6635 386.7616,-263.4518"/>
<text text-anchor="middle" x="428.9961" y="-275.8" font-family="Times,serif" font-size="14.00" fill="#000000">full_amount</text>
</g>
<!-- Checkout Flow -->
<g id="node6" class="node">
<title>Checkout Flow</title>
<polygon fill="none" stroke="#000000" points="574.7202,-255 472.8374,-255 472.8374,-219 574.7202,-219 574.7202,-255"/>
<text text-anchor="middle" x="523.7788" y="-232.8" font-family="Times,serif" font-size="14.00" fill="#000000">Checkout Flow</text>
</g>
<!-- payment_policy&#45;&gt;Checkout Flow -->
<g id="edge5" class="edge">
<title>payment_policy&#45;&gt;Checkout Flow</title>
<path fill="none" stroke="#000000" d="M449.0478,-307.6249C462.4036,-295.003 481.5866,-276.874 497.1728,-262.1442"/>
<polygon fill="#000000" stroke="#000000" points="499.63,-264.6376 504.494,-255.2252 494.822,-259.5501 499.63,-264.6376"/>
<text text-anchor="middle" x="502.9995" y="-275.8" font-family="Times,serif" font-size="14.00" fill="#000000">deposit</text>
</g>
<!-- Make Payment -->
<g id="node4" class="node">
<title>Make Payment</title>
<polygon fill="none" stroke="#000000" points="483.1486,-414 382.409,-414 382.409,-378 483.1486,-378 483.1486,-414"/>
<text text-anchor="middle" x="432.7788" y="-391.8" font-family="Times,serif" font-size="14.00" fill="#000000">Make Payment</text>
</g>
<!-- Create Booking&#45;&gt;Make Payment -->
<g id="edge2" class="edge">
<title>Create Booking&#45;&gt;Make Payment</title>
<path fill="none" stroke="#000000" d="M432.7788,-450.9551C432.7788,-442.8828 432.7788,-433.1764 432.7788,-424.1817"/>
<polygon fill="#000000" stroke="#000000" points="436.2789,-424.0903 432.7788,-414.0904 429.2789,-424.0904 436.2789,-424.0903"/>
</g>
<!-- Make Payment&#45;&gt;payment_policy -->
<g id="edge3" class="edge">
<title>Make Payment&#45;&gt;payment_policy</title>
<path fill="none" stroke="#000000" d="M432.7788,-377.9551C432.7788,-369.8828 432.7788,-360.1764 432.7788,-351.1817"/>
<polygon fill="#000000" stroke="#000000" points="436.2789,-351.0903 432.7788,-341.0904 429.2789,-351.0904 436.2789,-351.0903"/>
</g>
<!-- Charge 100% and take fee (fee = total * comission_percentage) -->
<g id="node7" class="node">
<title>Charge 100% and take fee (fee = total * comission_percentage)</title>
<polygon fill="none" stroke="#000000" points="371.3367,-182 .2209,-182 .2209,-146 371.3367,-146 371.3367,-182"/>
<text text-anchor="middle" x="185.7788" y="-159.8" font-family="Times,serif" font-size="14.00" fill="#000000">Charge 100% and take fee (fee = total * comission_percentage)</text>
</g>
<!-- Connect Flow&#45;&gt;Charge 100% and take fee (fee = total * comission_percentage) -->
<g id="edge6" class="edge">
<title>Connect Flow&#45;&gt;Charge 100% and take fee (fee = total * comission_percentage)</title>
<path fill="none" stroke="#000000" d="M328.8125,-218.9551C302.6643,-208.9087 269.9277,-196.3309 242.374,-185.7445"/>
<polygon fill="#000000" stroke="#000000" points="243.4533,-182.4098 232.8633,-182.0904 240.9427,-188.9441 243.4533,-182.4098"/>
</g>
<!-- Charge deposit (deposit = total * comission_percentage) -->
<g id="node9" class="node">
<title>Charge deposit (deposit = total * comission_percentage)</title>
<polygon fill="none" stroke="#000000" points="721.3465,-182 390.2111,-182 390.2111,-146 721.3465,-146 721.3465,-182"/>
<text text-anchor="middle" x="555.7788" y="-159.8" font-family="Times,serif" font-size="14.00" fill="#000000">Charge deposit (deposit = total * comission_percentage)</text>
</g>
<!-- Checkout Flow&#45;&gt;Charge deposit (deposit = total * comission_percentage) -->
<g id="edge8" class="edge">
<title>Checkout Flow&#45;&gt;Charge deposit (deposit = total * comission_percentage)</title>
<path fill="none" stroke="#000000" d="M531.6889,-218.9551C535.3428,-210.6196 539.7606,-200.5416 543.8099,-191.3042"/>
<polygon fill="#000000" stroke="#000000" points="547.0395,-192.6542 547.8488,-182.0904 540.6284,-189.8439 547.0395,-192.6542"/>
</g>
<!-- Stripe -->
<g id="node8" class="node">
<title>Stripe</title>
<polygon fill="none" stroke="#000000" points="436.7788,-109 382.7788,-109 382.7788,-73 436.7788,-73 436.7788,-109"/>
<text text-anchor="middle" x="409.7788" y="-86.8" font-family="Times,serif" font-size="14.00" fill="#000000">Stripe</text>
</g>
<!-- Charge 100% and take fee (fee = total * comission_percentage)&#45;&gt;Stripe -->
<g id="edge7" class="edge">
<title>Charge 100% and take fee (fee = total * comission_percentage)&#45;&gt;Stripe</title>
<path fill="none" stroke="#000000" d="M241.1496,-145.9551C282.2422,-132.5633 337.1366,-114.6736 372.9624,-102.9982"/>
<polygon fill="#000000" stroke="#000000" points="374.1109,-106.3052 382.5342,-99.8788 371.9418,-99.6497 374.1109,-106.3052"/>
</g>
<!-- Pay with iDeal -->
<g id="node11" class="node">
<title>Pay with iDeal</title>
<polygon fill="none" stroke="#000000" points="362.4861,-36 263.0716,-36 263.0716,0 362.4861,0 362.4861,-36"/>
<text text-anchor="middle" x="312.7788" y="-13.8" font-family="Times,serif" font-size="14.00" fill="#000000">Pay with iDeal</text>
</g>
<!-- Stripe&#45;&gt;Pay with iDeal -->
<g id="edge11" class="edge">
<title>Stripe&#45;&gt;Pay with iDeal</title>
<path fill="none" stroke="#000000" d="M385.8013,-72.9551C373.4429,-63.6545 358.2019,-52.1844 344.8462,-42.1332"/>
<polygon fill="#000000" stroke="#000000" points="346.9114,-39.307 336.8167,-36.0904 342.7022,-44.9001 346.9114,-39.307"/>
</g>
<!-- Pay CC -->
<g id="node12" class="node">
<title>Pay CC</title>
<polygon fill="none" stroke="#000000" points="439.4549,-36 380.1028,-36 380.1028,0 439.4549,0 439.4549,-36"/>
<text text-anchor="middle" x="409.7788" y="-13.8" font-family="Times,serif" font-size="14.00" fill="#000000">Pay CC</text>
</g>
<!-- Stripe&#45;&gt;Pay CC -->
<g id="edge12" class="edge">
<title>Stripe&#45;&gt;Pay CC</title>
<path fill="none" stroke="#000000" d="M409.7788,-72.9551C409.7788,-64.8828 409.7788,-55.1764 409.7788,-46.1817"/>
<polygon fill="#000000" stroke="#000000" points="413.2789,-46.0903 409.7788,-36.0904 406.2789,-46.0904 413.2789,-46.0903"/>
</g>
<!-- Pay CC 3D Secure -->
<g id="node13" class="node">
<title>Pay CC 3D Secure</title>
<polygon fill="none" stroke="#000000" points="578.6554,-36 456.9022,-36 456.9022,0 578.6554,0 578.6554,-36"/>
<text text-anchor="middle" x="517.7788" y="-13.8" font-family="Times,serif" font-size="14.00" fill="#000000">Pay CC 3D Secure</text>
</g>
<!-- Stripe&#45;&gt;Pay CC 3D Secure -->
<g id="edge13" class="edge">
<title>Stripe&#45;&gt;Pay CC 3D Secure</title>
<path fill="none" stroke="#000000" d="M436.4754,-72.9551C450.365,-63.5667 467.5251,-51.9678 482.4952,-41.8491"/>
<polygon fill="#000000" stroke="#000000" points="484.6901,-44.5901 491.015,-36.0904 480.77,-38.7907 484.6901,-44.5901"/>
</g>
<!-- Charge deposit (deposit = total * comission_percentage)&#45;&gt;Stripe -->
<g id="edge9" class="edge">
<title>Charge deposit (deposit = total * comission_percentage)&#45;&gt;Stripe</title>
<path fill="none" stroke="#000000" d="M519.6889,-145.9551C497.3749,-134.798 468.8169,-120.519 446.404,-109.3126"/>
<polygon fill="#000000" stroke="#000000" points="447.7204,-106.0577 437.2108,-104.716 444.5898,-112.3187 447.7204,-106.0577"/>
</g>
<!-- Paypal -->
<g id="node10" class="node">
<title>Paypal</title>
<polygon fill="none" stroke="#000000" points="582.8824,-109 528.6752,-109 528.6752,-73 582.8824,-73 582.8824,-109"/>
<text text-anchor="middle" x="555.7788" y="-86.8" font-family="Times,serif" font-size="14.00" fill="#000000">Paypal</text>
</g>
<!-- Charge deposit (deposit = total * comission_percentage)&#45;&gt;Paypal -->
<g id="edge10" class="edge">
<title>Charge deposit (deposit = total * comission_percentage)&#45;&gt;Paypal</title>
<path fill="none" stroke="#000000" d="M555.7788,-145.9551C555.7788,-137.8828 555.7788,-128.1764 555.7788,-119.1817"/>
<polygon fill="#000000" stroke="#000000" points="559.2789,-119.0903 555.7788,-109.0904 552.2789,-119.0904 559.2789,-119.0903"/>
</g>
</g>
</svg>
